<mxfile host="app.diagrams.net" modified="2023-08-25T17:47:06.602Z" agent="Mozilla/5.0 (Windows NT 10.0; Win64; x64) AppleWebKit/537.36 (KHTML, like Gecko) Chrome/116.0.0.0 Safari/537.36" etag="7A5SDb-T4wGEcDOUJ4Mz" version="21.6.9" type="device">
  <diagram name="Страница — 1" id="s0P83hu7fgKQWp1gKQGr">
    <mxGraphModel dx="1687" dy="2061" grid="1" gridSize="10" guides="1" tooltips="1" connect="1" arrows="1" fold="1" page="1" pageScale="1" pageWidth="827" pageHeight="1169" math="0" shadow="0">
      <root>
        <mxCell id="0" />
        <mxCell id="1" parent="0" />
        <mxCell id="clvegXWYqpBpk_iwqRGX-1" value="Спортсмен" style="shape=umlFrame;whiteSpace=wrap;html=1;pointerEvents=0;sketch=1;hachureGap=4;jiggle=2;curveFitting=1;fontFamily=Architects Daughter;fontSource=https%3A%2F%2Ffonts.googleapis.com%2Fcss%3Ffamily%3DArchitects%2BDaughter;fontSize=20;width=110;height=30;fillColor=#e1d5e7;strokeColor=#9673a6;strokeWidth=3;" vertex="1" parent="1">
          <mxGeometry x="40" y="-280" width="400" height="1230" as="geometry" />
        </mxCell>
        <mxCell id="clvegXWYqpBpk_iwqRGX-2" value="Судьи" style="shape=umlFrame;whiteSpace=wrap;html=1;pointerEvents=0;sketch=1;hachureGap=4;jiggle=2;curveFitting=1;fontFamily=Architects Daughter;fontSource=https%3A%2F%2Ffonts.googleapis.com%2Fcss%3Ffamily%3DArchitects%2BDaughter;fontSize=20;width=80;height=30;fillColor=#fff2cc;strokeColor=#d6b656;strokeWidth=3;" vertex="1" parent="1">
          <mxGeometry x="440" y="-280" width="400" height="1230" as="geometry" />
        </mxCell>
        <mxCell id="clvegXWYqpBpk_iwqRGX-8" value="" style="edgeStyle=orthogonalEdgeStyle;rounded=0;sketch=1;hachureGap=4;jiggle=2;curveFitting=1;orthogonalLoop=1;jettySize=auto;html=1;fontFamily=Architects Daughter;fontSource=https%3A%2F%2Ffonts.googleapis.com%2Fcss%3Ffamily%3DArchitects%2BDaughter;fontSize=16;" edge="1" parent="1" source="clvegXWYqpBpk_iwqRGX-3" target="clvegXWYqpBpk_iwqRGX-5">
          <mxGeometry relative="1" as="geometry">
            <mxPoint x="335" y="-355" as="targetPoint" />
          </mxGeometry>
        </mxCell>
        <mxCell id="clvegXWYqpBpk_iwqRGX-9" value="" style="edgeStyle=orthogonalEdgeStyle;rounded=0;sketch=1;hachureGap=4;jiggle=2;curveFitting=1;orthogonalLoop=1;jettySize=auto;html=1;fontFamily=Architects Daughter;fontSource=https%3A%2F%2Ffonts.googleapis.com%2Fcss%3Ffamily%3DArchitects%2BDaughter;fontSize=16;entryX=0.5;entryY=0;entryDx=0;entryDy=0;" edge="1" parent="1" source="clvegXWYqpBpk_iwqRGX-3" target="clvegXWYqpBpk_iwqRGX-6">
          <mxGeometry relative="1" as="geometry">
            <mxPoint x="545" y="-355" as="targetPoint" />
          </mxGeometry>
        </mxCell>
        <mxCell id="clvegXWYqpBpk_iwqRGX-3" value="" style="ellipse;html=1;shape=startState;fillColor=#000000;strokeColor=#ff0000;sketch=1;hachureGap=4;jiggle=2;curveFitting=1;fontFamily=Architects Daughter;fontSource=https%3A%2F%2Ffonts.googleapis.com%2Fcss%3Ffamily%3DArchitects%2BDaughter;fontSize=20;" vertex="1" parent="1">
          <mxGeometry x="415" y="-380" width="50" height="50" as="geometry" />
        </mxCell>
        <mxCell id="clvegXWYqpBpk_iwqRGX-12" value="Проезжает пол-трассы" style="edgeStyle=orthogonalEdgeStyle;rounded=0;sketch=1;hachureGap=4;jiggle=2;curveFitting=1;orthogonalLoop=1;jettySize=auto;html=1;fontFamily=Architects Daughter;fontSource=https%3A%2F%2Ffonts.googleapis.com%2Fcss%3Ffamily%3DArchitects%2BDaughter;fontSize=16;entryX=0.5;entryY=0;entryDx=0;entryDy=0;" edge="1" parent="1" source="clvegXWYqpBpk_iwqRGX-39" target="clvegXWYqpBpk_iwqRGX-24">
          <mxGeometry relative="1" as="geometry" />
        </mxCell>
        <mxCell id="clvegXWYqpBpk_iwqRGX-5" value="Готовый к&lt;br&gt;выступлению" style="ellipse;whiteSpace=wrap;html=1;sketch=1;hachureGap=4;jiggle=2;curveFitting=1;fontFamily=Architects Daughter;fontSource=https%3A%2F%2Ffonts.googleapis.com%2Fcss%3Ffamily%3DArchitects%2BDaughter;fontSize=20;" vertex="1" parent="1">
          <mxGeometry x="170" y="-230" width="140" height="70" as="geometry" />
        </mxCell>
        <mxCell id="clvegXWYqpBpk_iwqRGX-17" value="Отмеряет время&lt;br&gt;Следит за правильностью" style="edgeStyle=orthogonalEdgeStyle;rounded=0;sketch=1;hachureGap=4;jiggle=2;curveFitting=1;orthogonalLoop=1;jettySize=auto;html=1;fontFamily=Architects Daughter;fontSource=https%3A%2F%2Ffonts.googleapis.com%2Fcss%3Ffamily%3DArchitects%2BDaughter;fontSize=16;entryX=0.5;entryY=0;entryDx=0;entryDy=0;" edge="1" parent="1" source="clvegXWYqpBpk_iwqRGX-37" target="clvegXWYqpBpk_iwqRGX-25">
          <mxGeometry relative="1" as="geometry" />
        </mxCell>
        <mxCell id="clvegXWYqpBpk_iwqRGX-6" value="Готовый&amp;nbsp;&lt;br&gt;судить" style="ellipse;whiteSpace=wrap;html=1;sketch=1;hachureGap=4;jiggle=2;curveFitting=1;fontFamily=Architects Daughter;fontSource=https%3A%2F%2Ffonts.googleapis.com%2Fcss%3Ffamily%3DArchitects%2BDaughter;fontSize=20;" vertex="1" parent="1">
          <mxGeometry x="575" y="-230" width="140" height="70" as="geometry" />
        </mxCell>
        <mxCell id="clvegXWYqpBpk_iwqRGX-10" value="Горные лыжи" style="html=1;whiteSpace=wrap;sketch=1;hachureGap=4;jiggle=2;curveFitting=1;fontFamily=Architects Daughter;fontSource=https%3A%2F%2Ffonts.googleapis.com%2Fcss%3Ffamily%3DArchitects%2BDaughter;fontSize=20;" vertex="1" parent="1">
          <mxGeometry x="375" y="-460" width="140" height="50" as="geometry" />
        </mxCell>
        <mxCell id="clvegXWYqpBpk_iwqRGX-15" value="" style="edgeStyle=orthogonalEdgeStyle;rounded=0;sketch=1;hachureGap=4;jiggle=2;curveFitting=1;orthogonalLoop=1;jettySize=auto;html=1;fontFamily=Architects Daughter;fontSource=https%3A%2F%2Ffonts.googleapis.com%2Fcss%3Ffamily%3DArchitects%2BDaughter;fontSize=16;exitX=0.5;exitY=1;exitDx=0;exitDy=0;" edge="1" parent="1" source="clvegXWYqpBpk_iwqRGX-19" target="clvegXWYqpBpk_iwqRGX-13">
          <mxGeometry relative="1" as="geometry">
            <mxPoint x="240" y="766" as="sourcePoint" />
            <mxPoint as="offset" />
          </mxGeometry>
        </mxCell>
        <mxCell id="clvegXWYqpBpk_iwqRGX-21" value="Проезжает еще пол-трассы" style="edgeStyle=orthogonalEdgeStyle;rounded=0;sketch=1;hachureGap=4;jiggle=2;curveFitting=1;orthogonalLoop=1;jettySize=auto;html=1;fontFamily=Architects Daughter;fontSource=https%3A%2F%2Ffonts.googleapis.com%2Fcss%3Ffamily%3DArchitects%2BDaughter;fontSize=16;" edge="1" parent="1" source="clvegXWYqpBpk_iwqRGX-11" target="clvegXWYqpBpk_iwqRGX-19">
          <mxGeometry relative="1" as="geometry" />
        </mxCell>
        <mxCell id="clvegXWYqpBpk_iwqRGX-11" value="Проехавший&lt;br&gt;пол трассы" style="ellipse;whiteSpace=wrap;html=1;sketch=1;hachureGap=4;jiggle=2;curveFitting=1;fontFamily=Architects Daughter;fontSource=https%3A%2F%2Ffonts.googleapis.com%2Fcss%3Ffamily%3DArchitects%2BDaughter;fontSize=20;" vertex="1" parent="1">
          <mxGeometry x="170" y="520" width="140" height="70" as="geometry" />
        </mxCell>
        <mxCell id="clvegXWYqpBpk_iwqRGX-35" value="" style="edgeStyle=orthogonalEdgeStyle;rounded=0;sketch=1;hachureGap=4;jiggle=2;curveFitting=1;orthogonalLoop=1;jettySize=auto;html=1;fontFamily=Architects Daughter;fontSource=https%3A%2F%2Ffonts.googleapis.com%2Fcss%3Ffamily%3DArchitects%2BDaughter;fontSize=16;entryX=0;entryY=0.5;entryDx=0;entryDy=0;curved=1;exitX=0.5;exitY=1;exitDx=0;exitDy=0;" edge="1" parent="1" source="clvegXWYqpBpk_iwqRGX-13" target="clvegXWYqpBpk_iwqRGX-34">
          <mxGeometry relative="1" as="geometry">
            <mxPoint x="240" y="965" as="targetPoint" />
          </mxGeometry>
        </mxCell>
        <mxCell id="clvegXWYqpBpk_iwqRGX-13" value="Финишировавший" style="ellipse;whiteSpace=wrap;html=1;sketch=1;hachureGap=4;jiggle=2;curveFitting=1;fontFamily=Architects Daughter;fontSource=https%3A%2F%2Ffonts.googleapis.com%2Fcss%3Ffamily%3DArchitects%2BDaughter;fontSize=20;" vertex="1" parent="1">
          <mxGeometry x="135" y="815" width="210" height="70" as="geometry" />
        </mxCell>
        <mxCell id="clvegXWYqpBpk_iwqRGX-22" value="Отмеряет время&lt;br style=&quot;border-color: var(--border-color);&quot;&gt;Следит за правильностью" style="edgeStyle=orthogonalEdgeStyle;rounded=0;sketch=1;hachureGap=4;jiggle=2;curveFitting=1;orthogonalLoop=1;jettySize=auto;html=1;fontFamily=Architects Daughter;fontSource=https%3A%2F%2Ffonts.googleapis.com%2Fcss%3Ffamily%3DArchitects%2BDaughter;fontSize=16;" edge="1" parent="1" source="clvegXWYqpBpk_iwqRGX-16" target="clvegXWYqpBpk_iwqRGX-20">
          <mxGeometry relative="1" as="geometry" />
        </mxCell>
        <mxCell id="clvegXWYqpBpk_iwqRGX-16" value="Отсудивший&lt;br&gt;пол трассы" style="ellipse;whiteSpace=wrap;html=1;sketch=1;hachureGap=4;jiggle=2;curveFitting=1;fontFamily=Architects Daughter;fontSource=https%3A%2F%2Ffonts.googleapis.com%2Fcss%3Ffamily%3DArchitects%2BDaughter;fontSize=20;" vertex="1" parent="1">
          <mxGeometry x="570" y="520" width="140" height="70" as="geometry" />
        </mxCell>
        <mxCell id="clvegXWYqpBpk_iwqRGX-36" value="" style="edgeStyle=orthogonalEdgeStyle;rounded=0;sketch=1;hachureGap=4;jiggle=2;curveFitting=1;orthogonalLoop=1;jettySize=auto;html=1;fontFamily=Architects Daughter;fontSource=https%3A%2F%2Ffonts.googleapis.com%2Fcss%3Ffamily%3DArchitects%2BDaughter;fontSize=16;curved=1;entryX=1;entryY=0.5;entryDx=0;entryDy=0;exitX=0.5;exitY=1;exitDx=0;exitDy=0;" edge="1" parent="1" source="clvegXWYqpBpk_iwqRGX-18" target="clvegXWYqpBpk_iwqRGX-34">
          <mxGeometry relative="1" as="geometry">
            <mxPoint x="640" y="975" as="targetPoint" />
          </mxGeometry>
        </mxCell>
        <mxCell id="clvegXWYqpBpk_iwqRGX-18" value="Полностью отсудивший выступление" style="ellipse;whiteSpace=wrap;html=1;sketch=1;hachureGap=4;jiggle=2;curveFitting=1;fontFamily=Architects Daughter;fontSource=https%3A%2F%2Ffonts.googleapis.com%2Fcss%3Ffamily%3DArchitects%2BDaughter;fontSize=20;" vertex="1" parent="1">
          <mxGeometry x="545" y="805" width="190" height="90" as="geometry" />
        </mxCell>
        <mxCell id="clvegXWYqpBpk_iwqRGX-32" value="" style="edgeStyle=orthogonalEdgeStyle;rounded=0;sketch=1;hachureGap=4;jiggle=2;curveFitting=1;orthogonalLoop=1;jettySize=auto;html=1;fontFamily=Architects Daughter;fontSource=https%3A%2F%2Ffonts.googleapis.com%2Fcss%3Ffamily%3DArchitects%2BDaughter;fontSize=16;" edge="1" parent="1" source="clvegXWYqpBpk_iwqRGX-19" target="clvegXWYqpBpk_iwqRGX-31">
          <mxGeometry relative="1" as="geometry" />
        </mxCell>
        <mxCell id="clvegXWYqpBpk_iwqRGX-19" value="" style="html=1;whiteSpace=wrap;sketch=1;hachureGap=4;jiggle=2;curveFitting=1;fontFamily=Architects Daughter;fontSource=https%3A%2F%2Ffonts.googleapis.com%2Fcss%3Ffamily%3DArchitects%2BDaughter;fontSize=20;" vertex="1" parent="1">
          <mxGeometry x="185" y="675" width="110" height="50" as="geometry" />
        </mxCell>
        <mxCell id="clvegXWYqpBpk_iwqRGX-23" value="" style="edgeStyle=orthogonalEdgeStyle;rounded=0;sketch=1;hachureGap=4;jiggle=2;curveFitting=1;orthogonalLoop=1;jettySize=auto;html=1;fontFamily=Architects Daughter;fontSource=https%3A%2F%2Ffonts.googleapis.com%2Fcss%3Ffamily%3DArchitects%2BDaughter;fontSize=16;" edge="1" parent="1" source="clvegXWYqpBpk_iwqRGX-20" target="clvegXWYqpBpk_iwqRGX-18">
          <mxGeometry relative="1" as="geometry" />
        </mxCell>
        <mxCell id="clvegXWYqpBpk_iwqRGX-20" value="" style="html=1;whiteSpace=wrap;sketch=1;hachureGap=4;jiggle=2;curveFitting=1;fontFamily=Architects Daughter;fontSource=https%3A%2F%2Ffonts.googleapis.com%2Fcss%3Ffamily%3DArchitects%2BDaughter;fontSize=20;" vertex="1" parent="1">
          <mxGeometry x="585" y="675" width="110" height="50" as="geometry" />
        </mxCell>
        <mxCell id="clvegXWYqpBpk_iwqRGX-26" value="" style="edgeStyle=orthogonalEdgeStyle;rounded=0;sketch=1;hachureGap=4;jiggle=2;curveFitting=1;orthogonalLoop=1;jettySize=auto;html=1;fontFamily=Architects Daughter;fontSource=https%3A%2F%2Ffonts.googleapis.com%2Fcss%3Ffamily%3DArchitects%2BDaughter;fontSize=16;" edge="1" parent="1" source="clvegXWYqpBpk_iwqRGX-24" target="clvegXWYqpBpk_iwqRGX-11">
          <mxGeometry relative="1" as="geometry" />
        </mxCell>
        <mxCell id="clvegXWYqpBpk_iwqRGX-29" value="" style="edgeStyle=orthogonalEdgeStyle;rounded=0;sketch=1;hachureGap=4;jiggle=2;curveFitting=1;orthogonalLoop=1;jettySize=auto;html=1;fontFamily=Architects Daughter;fontSource=https%3A%2F%2Ffonts.googleapis.com%2Fcss%3Ffamily%3DArchitects%2BDaughter;fontSize=16;" edge="1" parent="1" source="clvegXWYqpBpk_iwqRGX-24" target="clvegXWYqpBpk_iwqRGX-28">
          <mxGeometry relative="1" as="geometry" />
        </mxCell>
        <mxCell id="clvegXWYqpBpk_iwqRGX-24" value="" style="html=1;whiteSpace=wrap;sketch=1;hachureGap=4;jiggle=2;curveFitting=1;fontFamily=Architects Daughter;fontSource=https%3A%2F%2Ffonts.googleapis.com%2Fcss%3Ffamily%3DArchitects%2BDaughter;fontSize=20;" vertex="1" parent="1">
          <mxGeometry x="185" y="360" width="110" height="50" as="geometry" />
        </mxCell>
        <mxCell id="clvegXWYqpBpk_iwqRGX-27" value="" style="edgeStyle=orthogonalEdgeStyle;rounded=0;sketch=1;hachureGap=4;jiggle=2;curveFitting=1;orthogonalLoop=1;jettySize=auto;html=1;fontFamily=Architects Daughter;fontSource=https%3A%2F%2Ffonts.googleapis.com%2Fcss%3Ffamily%3DArchitects%2BDaughter;fontSize=16;" edge="1" parent="1" source="clvegXWYqpBpk_iwqRGX-25" target="clvegXWYqpBpk_iwqRGX-16">
          <mxGeometry relative="1" as="geometry" />
        </mxCell>
        <mxCell id="clvegXWYqpBpk_iwqRGX-25" value="" style="html=1;whiteSpace=wrap;sketch=1;hachureGap=4;jiggle=2;curveFitting=1;fontFamily=Architects Daughter;fontSource=https%3A%2F%2Ffonts.googleapis.com%2Fcss%3Ffamily%3DArchitects%2BDaughter;fontSize=20;" vertex="1" parent="1">
          <mxGeometry x="585" y="360" width="110" height="50" as="geometry" />
        </mxCell>
        <mxCell id="clvegXWYqpBpk_iwqRGX-30" value="" style="edgeStyle=orthogonalEdgeStyle;rounded=0;sketch=1;hachureGap=4;jiggle=2;curveFitting=1;orthogonalLoop=1;jettySize=auto;html=1;fontFamily=Architects Daughter;fontSource=https%3A%2F%2Ffonts.googleapis.com%2Fcss%3Ffamily%3DArchitects%2BDaughter;fontSize=16;" edge="1" parent="1" source="clvegXWYqpBpk_iwqRGX-28" target="clvegXWYqpBpk_iwqRGX-25">
          <mxGeometry relative="1" as="geometry" />
        </mxCell>
        <mxCell id="clvegXWYqpBpk_iwqRGX-28" value="*" style="ellipse;whiteSpace=wrap;html=1;fontSize=20;fontFamily=Architects Daughter;sketch=1;hachureGap=4;jiggle=2;curveFitting=1;fontSource=https%3A%2F%2Ffonts.googleapis.com%2Fcss%3Ffamily%3DArchitects%2BDaughter;" vertex="1" parent="1">
          <mxGeometry x="420" y="357.5" width="50" height="55" as="geometry" />
        </mxCell>
        <mxCell id="clvegXWYqpBpk_iwqRGX-33" value="" style="edgeStyle=orthogonalEdgeStyle;rounded=0;sketch=1;hachureGap=4;jiggle=2;curveFitting=1;orthogonalLoop=1;jettySize=auto;html=1;fontFamily=Architects Daughter;fontSource=https%3A%2F%2Ffonts.googleapis.com%2Fcss%3Ffamily%3DArchitects%2BDaughter;fontSize=16;" edge="1" parent="1" source="clvegXWYqpBpk_iwqRGX-31" target="clvegXWYqpBpk_iwqRGX-20">
          <mxGeometry relative="1" as="geometry" />
        </mxCell>
        <mxCell id="clvegXWYqpBpk_iwqRGX-31" value="*" style="ellipse;whiteSpace=wrap;html=1;fontSize=20;fontFamily=Architects Daughter;sketch=1;hachureGap=4;jiggle=2;curveFitting=1;fontSource=https%3A%2F%2Ffonts.googleapis.com%2Fcss%3Ffamily%3DArchitects%2BDaughter;" vertex="1" parent="1">
          <mxGeometry x="410" y="665" width="60" height="70" as="geometry" />
        </mxCell>
        <mxCell id="clvegXWYqpBpk_iwqRGX-34" value="" style="ellipse;html=1;shape=endState;fillColor=#000000;strokeColor=#ff0000;sketch=1;hachureGap=4;jiggle=2;curveFitting=1;fontFamily=Architects Daughter;fontSource=https%3A%2F%2Ffonts.googleapis.com%2Fcss%3Ffamily%3DArchitects%2BDaughter;fontSize=20;" vertex="1" parent="1">
          <mxGeometry x="425" y="1040" width="30" height="30" as="geometry" />
        </mxCell>
        <mxCell id="clvegXWYqpBpk_iwqRGX-38" value="дает старт" style="edgeStyle=orthogonalEdgeStyle;rounded=0;sketch=1;hachureGap=4;jiggle=2;curveFitting=1;orthogonalLoop=1;jettySize=auto;html=1;fontFamily=Architects Daughter;fontSource=https%3A%2F%2Ffonts.googleapis.com%2Fcss%3Ffamily%3DArchitects%2BDaughter;fontSize=16;entryX=0.5;entryY=0;entryDx=0;entryDy=0;" edge="1" parent="1" source="clvegXWYqpBpk_iwqRGX-6" target="clvegXWYqpBpk_iwqRGX-43">
          <mxGeometry relative="1" as="geometry">
            <mxPoint x="645" y="-10" as="sourcePoint" />
            <mxPoint x="640" y="360" as="targetPoint" />
          </mxGeometry>
        </mxCell>
        <mxCell id="clvegXWYqpBpk_iwqRGX-37" value="Начавший судить" style="ellipse;whiteSpace=wrap;html=1;sketch=1;hachureGap=4;jiggle=2;curveFitting=1;fontFamily=Architects Daughter;fontSource=https%3A%2F%2Ffonts.googleapis.com%2Fcss%3Ffamily%3DArchitects%2BDaughter;fontSize=20;" vertex="1" parent="1">
          <mxGeometry x="575" y="120" width="140" height="70" as="geometry" />
        </mxCell>
        <mxCell id="clvegXWYqpBpk_iwqRGX-40" value="стартует" style="edgeStyle=orthogonalEdgeStyle;rounded=0;sketch=1;hachureGap=4;jiggle=2;curveFitting=1;orthogonalLoop=1;jettySize=auto;html=1;fontFamily=Architects Daughter;fontSource=https%3A%2F%2Ffonts.googleapis.com%2Fcss%3Ffamily%3DArchitects%2BDaughter;fontSize=16;entryX=0.5;entryY=0;entryDx=0;entryDy=0;" edge="1" parent="1" source="clvegXWYqpBpk_iwqRGX-5" target="clvegXWYqpBpk_iwqRGX-42">
          <mxGeometry relative="1" as="geometry">
            <mxPoint x="245" y="-10" as="sourcePoint" />
            <mxPoint x="240" y="360" as="targetPoint" />
          </mxGeometry>
        </mxCell>
        <mxCell id="clvegXWYqpBpk_iwqRGX-39" value="Стартовавший" style="ellipse;whiteSpace=wrap;html=1;sketch=1;hachureGap=4;jiggle=2;curveFitting=1;fontFamily=Architects Daughter;fontSource=https%3A%2F%2Ffonts.googleapis.com%2Fcss%3Ffamily%3DArchitects%2BDaughter;fontSize=20;" vertex="1" parent="1">
          <mxGeometry x="170" y="130" width="140" height="70" as="geometry" />
        </mxCell>
        <mxCell id="clvegXWYqpBpk_iwqRGX-41" value="" style="edgeStyle=orthogonalEdgeStyle;rounded=0;sketch=1;hachureGap=4;jiggle=2;curveFitting=1;orthogonalLoop=1;jettySize=auto;html=1;fontFamily=Architects Daughter;fontSource=https%3A%2F%2Ffonts.googleapis.com%2Fcss%3Ffamily%3DArchitects%2BDaughter;fontSize=16;startArrow=classic;startFill=1;" edge="1" parent="1" source="clvegXWYqpBpk_iwqRGX-42" target="clvegXWYqpBpk_iwqRGX-45">
          <mxGeometry relative="1" as="geometry" />
        </mxCell>
        <mxCell id="clvegXWYqpBpk_iwqRGX-46" value="" style="edgeStyle=orthogonalEdgeStyle;rounded=0;sketch=1;hachureGap=4;jiggle=2;curveFitting=1;orthogonalLoop=1;jettySize=auto;html=1;fontFamily=Architects Daughter;fontSource=https%3A%2F%2Ffonts.googleapis.com%2Fcss%3Ffamily%3DArchitects%2BDaughter;fontSize=16;" edge="1" parent="1" source="clvegXWYqpBpk_iwqRGX-42" target="clvegXWYqpBpk_iwqRGX-39">
          <mxGeometry relative="1" as="geometry" />
        </mxCell>
        <mxCell id="clvegXWYqpBpk_iwqRGX-42" value="" style="html=1;whiteSpace=wrap;sketch=1;hachureGap=4;jiggle=2;curveFitting=1;fontFamily=Architects Daughter;fontSource=https%3A%2F%2Ffonts.googleapis.com%2Fcss%3Ffamily%3DArchitects%2BDaughter;fontSize=20;" vertex="1" parent="1">
          <mxGeometry x="185" y="-25" width="110" height="50" as="geometry" />
        </mxCell>
        <mxCell id="clvegXWYqpBpk_iwqRGX-47" value="" style="edgeStyle=orthogonalEdgeStyle;rounded=0;sketch=1;hachureGap=4;jiggle=2;curveFitting=1;orthogonalLoop=1;jettySize=auto;html=1;fontFamily=Architects Daughter;fontSource=https%3A%2F%2Ffonts.googleapis.com%2Fcss%3Ffamily%3DArchitects%2BDaughter;fontSize=16;" edge="1" parent="1" source="clvegXWYqpBpk_iwqRGX-43" target="clvegXWYqpBpk_iwqRGX-37">
          <mxGeometry relative="1" as="geometry" />
        </mxCell>
        <mxCell id="clvegXWYqpBpk_iwqRGX-43" value="" style="html=1;whiteSpace=wrap;sketch=1;hachureGap=4;jiggle=2;curveFitting=1;fontFamily=Architects Daughter;fontSource=https%3A%2F%2Ffonts.googleapis.com%2Fcss%3Ffamily%3DArchitects%2BDaughter;fontSize=20;" vertex="1" parent="1">
          <mxGeometry x="590" y="-25" width="110" height="50" as="geometry" />
        </mxCell>
        <mxCell id="clvegXWYqpBpk_iwqRGX-44" value="" style="edgeStyle=orthogonalEdgeStyle;rounded=0;sketch=1;hachureGap=4;jiggle=2;curveFitting=1;orthogonalLoop=1;jettySize=auto;html=1;fontFamily=Architects Daughter;fontSource=https%3A%2F%2Ffonts.googleapis.com%2Fcss%3Ffamily%3DArchitects%2BDaughter;fontSize=16;startArrow=classic;startFill=1;" edge="1" parent="1" source="clvegXWYqpBpk_iwqRGX-45" target="clvegXWYqpBpk_iwqRGX-43">
          <mxGeometry relative="1" as="geometry" />
        </mxCell>
        <mxCell id="clvegXWYqpBpk_iwqRGX-45" value="*" style="ellipse;whiteSpace=wrap;html=1;fontSize=20;fontFamily=Architects Daughter;sketch=1;hachureGap=4;jiggle=2;curveFitting=1;fontSource=https%3A%2F%2Ffonts.googleapis.com%2Fcss%3Ffamily%3DArchitects%2BDaughter;" vertex="1" parent="1">
          <mxGeometry x="415" y="-27.5" width="50" height="55" as="geometry" />
        </mxCell>
      </root>
    </mxGraphModel>
  </diagram>
</mxfile>
